<?xml version="1.0" standalone="no"?>
<!DOCTYPE svg PUBLIC "-//W3C//DTD SVG 20010904//EN"
 "http://www.w3.org/TR/2001/REC-SVG-20010904/DTD/svg10.dtd">
<svg version="1.0" xmlns="http://www.w3.org/2000/svg"
 width="1000.000000pt" height="1000.000000pt" viewBox="0 0 1000.000000 1000.000000"
 preserveAspectRatio="xMidYMid meet">
<metadata>
Created by potrace 1.11, written by Peter Selinger 2001-2013
</metadata>
<g transform="translate(0.000000,1000.000000) scale(0.100000,-0.100000)"
fill="#000000" stroke="none">
<path d="M2763 7877 c-4 -8 -46 -33 -93 -57 -105 -53 -285 -162 -407 -246
-166 -115 -313 -250 -514 -469 -107 -117 -107 -132 -4 -296 92 -147 102 -186
54 -226 -16 -14 -29 -29 -29 -33 0 -5 -12 -22 -27 -38 -16 -16 -38 -42 -50
-58 -13 -16 -38 -47 -58 -69 -19 -22 -35 -43 -35 -46 0 -11 -67 -39 -82 -35
-7 3 -112 7 -233 11 -237 6 -246 9 -260 63 -4 15 -14 35 -23 45 -15 16 -15 17
1 11 33 -12 16 6 -19 21 -29 12 -34 18 -29 36 5 14 4 19 -4 15 -6 -4 -22 5
-36 21 -28 32 -33 52 -8 32 15 -12 16 -12 11 3 -6 14 -2 15 29 6 29 -8 37 -6
49 9 12 17 13 17 14 1 0 -25 20 -23 20 2 0 11 -4 20 -10 20 -5 0 -10 4 -10 9
0 12 52 11 67 -1 9 -8 13 -6 13 5 0 8 -4 17 -9 19 -6 2 -11 15 -13 30 -5 35
-17 46 -28 28 -14 -23 -12 -40 6 -40 8 0 12 -5 9 -10 -4 -7 -12 -7 -18 -2 -7
5 -26 8 -44 7 -18 -1 -30 2 -27 6 2 4 11 6 19 2 11 -4 14 0 9 13 -6 17 -5 17
10 -1 17 -20 17 -19 6 4 -9 18 -9 22 0 16 6 -4 17 1 24 11 8 10 20 15 30 11 9
-4 16 -2 16 4 0 6 5 7 12 3 7 -5 8 -3 3 6 -5 8 -1 18 11 27 15 11 16 16 6 22
-10 6 -10 10 2 21 9 7 13 16 10 21 -3 5 3 6 12 2 12 -5 15 -3 9 6 -5 10 -2 11
14 6 13 -4 21 -2 21 5 0 6 -4 9 -9 6 -5 -4 -11 0 -13 6 -8 24 -308 -297 -308
-328 0 -7 5 -16 12 -20 8 -5 9 -1 4 12 -5 14 -4 16 5 7 17 -17 3 -31 -26 -25
-19 3 -25 0 -25 -14 -1 -32 -36 -97 -79 -144 -45 -49 -51 -65 -21 -55 12 4 20
2 20 -5 0 -7 -11 -10 -27 -8 -29 3 -32 -3 -40 -85 -4 -43 -2 -52 23 -78 15
-16 34 -29 41 -29 7 0 16 -12 19 -27 6 -22 2 -31 -22 -50 -34 -27 -171 -95
-197 -98 -15 -1 -32 -17 -88 -82 -8 -10 -44 -50 -80 -89 -35 -40 -89 -102
-119 -139 -30 -37 -74 -87 -97 -111 -26 -27 -40 -50 -37 -59 6 -15 58 -45 79
-45 7 0 25 -16 39 -35 17 -22 22 -35 14 -35 -9 0 -10 -3 -2 -8 6 -4 14 -16 18
-27 3 -11 22 -38 41 -60 19 -22 35 -45 35 -51 0 -6 11 -23 25 -38 14 -15 25
-34 25 -42 0 -8 7 -17 15 -20 14 -6 13 -8 -2 -21 -10 -8 -12 -12 -5 -8 7 4 12
0 12 -11 0 -12 -5 -15 -22 -9 -40 12 -79 12 -75 1 11 -34 230 -135 312 -143
51 -5 54 -4 99 37 47 44 56 65 14 36 -12 -9 -33 -16 -46 -16 -20 0 -22 4 -17
23 11 34 24 44 35 27 8 -12 10 -9 10 12 0 18 7 29 20 33 21 7 53 62 44 76 -3
5 3 9 13 9 17 1 16 2 -2 16 -20 16 -20 16 2 9 17 -5 23 -2 23 9 0 9 -5 16 -10
16 -7 0 -7 6 0 20 6 10 17 17 24 14 9 -3 17 4 22 18 6 20 8 21 13 5 5 -14 8
-12 18 13 6 16 7 30 2 30 -5 0 -9 5 -9 11 0 5 5 7 11 3 6 -4 34 18 65 50 29
31 58 56 64 56 5 0 10 6 10 14 0 7 7 19 16 27 11 9 15 27 13 63 -1 28 -1 69 0
91 2 32 4 36 11 20 5 -11 9 -15 10 -10 2 6 8 -12 15 -40 13 -50 13 -50 20 -18
10 43 95 136 158 172 63 36 153 61 218 61 67 0 304 -82 502 -174 42 -20 81
-36 86 -36 28 0 541 -201 881 -345 74 -31 167 -70 205 -85 39 -15 95 -39 125
-53 30 -14 134 -59 230 -100 213 -91 495 -215 610 -269 47 -22 108 -49 135
-61 55 -24 397 -195 460 -230 22 -13 76 -42 120 -66 44 -24 121 -67 170 -96
209 -121 264 -153 366 -208 24 -13 116 -63 204 -112 361 -198 1092 -572 1390
-710 44 -21 116 -54 160 -75 266 -124 392 -182 640 -292 478 -213 585 -276
759 -443 30 -29 144 -165 196 -234 51 -68 126 -80 272 -45 108 26 167 51 88
37 -76 -13 -192 -8 -227 10 -35 19 -76 67 -92 110 -15 39 -5 33 25 -15 37 -58
46 -66 88 -73 25 -5 47 -2 70 9 45 21 118 35 152 28 19 -3 25 -1 20 7 -5 8 2
11 26 9 32 -2 82 22 104 51 7 8 16 11 24 6 10 -6 12 -4 7 8 -4 11 2 18 21 25
37 13 87 64 88 89 0 22 -14 26 -29 8 -5 -6 -7 -4 -4 5 2 8 13 16 25 18 12 2
22 9 22 16 0 7 9 21 20 31 11 10 22 27 26 39 4 11 18 32 33 46 29 28 65 80 55
80 -3 0 6 14 20 31 14 17 26 41 26 55 0 21 47 121 73 152 17 21 69 174 72 215
2 20 6 41 9 46 3 5 0 14 -8 20 -11 9 -15 9 -18 0 -2 -7 -13 -13 -24 -13 -10
-1 -21 -6 -22 -11 -2 -6 -8 -15 -13 -22 -7 -7 -5 -13 3 -17 7 -3 3 -3 -10 0
-12 3 -22 1 -22 -5 0 -6 7 -11 15 -11 20 0 19 -19 0 -26 -10 -4 -13 -13 -10
-24 3 -10 1 -21 -5 -25 -5 -3 -21 -30 -35 -60 -23 -47 -155 -214 -177 -223 -5
-2 -38 -28 -75 -58 -76 -63 -102 -71 -78 -24 8 16 13 42 11 57 -4 24 7 41 80
118 77 80 184 223 184 245 0 4 7 14 16 21 15 12 16 11 9 -11 -5 -17 -4 -22 3
-15 15 15 27 59 13 51 -16 -10 -14 -1 10 46 30 59 59 146 59 178 0 27 -2 28
-77 35 -183 16 -425 71 -633 142 -154 52 -154 52 -580 258 -369 179 -402 195
-750 355 -146 67 -283 129 -304 136 -22 8 -44 18 -50 23 -6 4 -42 21 -81 36
-38 15 -97 40 -130 55 -33 15 -71 31 -85 35 -14 4 -52 20 -85 36 -33 15 -85
37 -115 48 -30 12 -64 26 -75 31 -32 15 -165 69 -225 91 -30 12 -68 27 -85 34
-44 21 -262 105 -270 105 -4 0 -21 6 -38 14 -18 8 -59 24 -92 36 -33 13 -69
26 -80 31 -11 4 -31 11 -44 15 -13 3 -40 13 -60 22 -20 9 -40 16 -46 17 -5 1
-19 5 -30 9 -122 46 -150 55 -153 47 -2 -5 -13 0 -24 11 -19 19 -22 19 -30 4
-12 -21 -25 -20 -30 2 -4 13 -63 40 -209 96 -112 43 -253 97 -314 120 -107 42
-110 42 -117 22 -3 -12 -6 -121 -7 -242 -1 -176 -4 -224 -15 -233 -10 -9 -15
-8 -19 2 -5 13 -66 45 -182 97 -22 9 -64 29 -93 44 -30 14 -63 26 -74 26 -10
0 -57 18 -103 40 -46 22 -89 40 -95 40 -5 0 -18 4 -28 9 -9 6 -42 18 -72 27
-30 9 -75 26 -100 38 -25 11 -47 21 -50 21 -3 1 -27 12 -55 24 -103 48 -154
71 -159 71 -3 0 -29 11 -58 24 -29 13 -80 33 -112 45 -33 12 -71 28 -85 35
-55 29 -267 126 -275 126 -3 0 -31 12 -63 27 -65 29 -158 71 -218 98 -22 9
-65 30 -95 45 -30 15 -66 31 -80 35 -14 4 -63 25 -110 47 -87 40 -95 44 -215
98 -92 42 -271 111 -363 139 -46 14 -72 26 -69 34 3 7 10 11 16 9 7 -1 10 1 8
5 -6 10 106 149 119 146 5 -1 16 5 25 13 9 8 18 12 20 9 3 -2 5 5 5 16 0 20
-1 20 -18 -1 -10 -13 -20 -21 -22 -19 -3 2 9 20 26 39 16 19 27 30 24 24 -3
-6 1 -11 9 -11 10 0 11 5 6 15 -6 10 -1 23 12 38 17 20 23 22 36 11 14 -10 14
-10 4 4 -11 13 -5 24 33 65 25 27 43 44 40 37 -4 -6 -2 -14 3 -18 6 -3 8 5 5
20 -3 17 1 27 11 31 8 4 15 12 15 18 0 7 13 25 30 41 29 27 29 29 10 39 -11 6
-53 28 -93 49 -191 101 -310 184 -279 194 6 3 10 9 6 14 -3 5 3 12 13 16 22 9
59 54 55 68 -2 5 -1 7 3 3 4 -4 42 28 84 70 141 143 291 250 507 364 65 34
127 71 137 83 16 17 17 33 13 129 -3 61 -10 114 -16 120 -7 7 -10 6 -10 -2 0
-17 -79 -102 -105 -113 -20 -9 -76 -40 -192 -108 -32 -19 -67 -42 -78 -51 -11
-10 -31 -16 -45 -15 -14 2 -29 4 -33 4 -11 1 19 31 31 31 5 0 14 10 20 23 6
12 11 16 11 10 1 -16 31 -17 31 -2 0 5 4 8 9 5 5 -4 7 2 4 13 -4 16 0 18 33
14 34 -3 36 -2 23 13 -13 16 -12 17 8 12 16 -4 23 0 26 14 4 13 10 17 18 12 9
-5 10 -2 5 11 -5 15 -4 16 9 5 13 -11 14 -10 9 4 -5 12 0 16 18 16 26 0 65 36
45 43 -6 2 8 11 31 20 23 9 42 19 42 22 0 3 -30 -7 -67 -21 -38 -14 -84 -32
-103 -39 -19 -7 -59 -22 -87 -34 -29 -11 -53 -17 -53 -13 0 8 104 79 170 115
19 11 54 33 77 48 23 16 45 29 50 29 14 0 83 71 83 86 0 8 -4 14 -9 14 -5 0
-14 12 -19 28 -9 24 -11 24 -11 5 -1 -12 6 -29 15 -38 15 -14 14 -18 -12 -40
-15 -13 -30 -22 -32 -20 -3 3 5 13 18 23 19 15 21 22 11 40 -6 11 -12 33 -12
49 l-1 28 -8 -30 c-6 -25 -8 -26 -9 -7 0 13 -10 32 -21 44 -21 23 -26 38 -11
38 5 0 11 7 15 15 7 19 -10 20 -21 2z m-68 -83 c-14 -6 -95 -64 -141 -102 -39
-32 -129 -98 -159 -117 -9 -5 -17 -20 -18 -32 0 -12 -4 -21 -7 -21 -24 2 -39
-6 -50 -26 -7 -14 -26 -30 -41 -37 -16 -6 -29 -17 -29 -24 0 -7 -19 -33 -43
-57 -24 -23 -65 -70 -93 -103 -27 -33 -57 -66 -66 -73 -10 -7 -18 -19 -18 -25
0 -7 -11 -21 -25 -31 -14 -10 -25 -25 -25 -33 0 -7 -7 -16 -15 -19 -8 -4 -15
-12 -15 -20 0 -8 -4 -14 -8 -14 -5 0 -14 -16 -22 -35 -8 -19 -18 -35 -22 -35
-5 0 -12 -8 -15 -17 -4 -10 -18 -29 -30 -41 -21 -21 -23 -30 -17 -70 8 -51 10
-54 74 -97 25 -16 56 -40 70 -52 14 -13 30 -23 37 -23 7 0 13 -5 13 -11 0 -6
7 -9 15 -5 9 3 15 0 15 -10 0 -8 4 -12 10 -9 5 3 7 0 4 -9 -4 -11 0 -14 16
-11 25 5 92 -24 84 -37 -3 -4 -10 -5 -16 -2 -7 4 -8 2 -4 -4 5 -9 13 -9 28 -1
12 6 18 7 14 1 -3 -5 6 -13 19 -16 14 -4 23 -10 21 -15 -9 -13 19 -32 37 -25
9 3 23 -3 34 -15 9 -12 26 -21 36 -21 15 0 17 -3 8 -14 -9 -11 -6 -13 20 -10
27 3 30 2 19 -11 -7 -9 -21 -13 -31 -10 -11 4 -19 2 -19 -4 0 -6 9 -11 20 -11
11 0 20 -5 20 -11 0 -7 -12 -9 -36 -4 -26 4 -34 3 -29 -5 5 -8 1 -10 -12 -6
-14 4 -20 2 -20 -9 0 -18 -1 -18 33 -3 22 10 28 10 39 -5 11 -15 13 -14 23 8
6 14 17 25 23 25 6 0 8 7 5 16 -3 8 -2 13 3 9 5 -3 11 1 14 7 2 7 8 10 12 6 4
-4 -13 -32 -39 -62 -25 -30 -46 -57 -46 -61 0 -13 -144 -177 -148 -167 -3 11
-52 -30 -52 -43 0 -5 11 2 25 15 56 52 19 1 -75 -105 l-100 -113 -42 21 c-24
11 -50 26 -59 34 -9 8 -20 13 -25 11 -5 -1 -31 8 -58 20 -27 12 -52 22 -55 22
-4 0 -70 29 -146 64 -159 72 -162 73 -340 82 -158 8 -267 25 -273 42 -3 9 3
11 21 7 21 -6 29 -1 48 27 l21 33 87 -7 c47 -4 150 -10 228 -14 140 -6 142 -6
191 21 27 15 55 38 61 51 6 13 15 24 21 24 5 0 10 7 10 15 0 8 4 15 9 15 5 0
13 9 16 20 5 17 9 18 28 8 19 -10 20 -9 10 4 -11 12 -9 19 7 39 12 13 30 38
41 56 11 18 27 33 35 33 8 0 20 11 26 25 8 18 17 24 30 19 14 -4 16 -1 11 12
-5 13 -3 15 7 9 9 -6 11 -4 6 4 -5 7 -13 10 -20 8 -7 -3 -12 3 -13 13 -1 13 4
16 23 12 13 -2 24 -2 24 1 0 8 -60 37 -75 37 -7 0 -16 8 -19 18 -9 24 -30 59
-49 80 -23 25 -21 35 5 26 21 -6 21 -5 9 10 -8 9 -19 15 -25 13 -10 -4 -31 11
-33 23 -1 3 -9 23 -19 44 -15 30 -16 40 -6 44 10 3 10 7 1 19 -10 12 -10 16 2
24 8 5 11 9 7 9 -4 0 -1 8 8 19 9 10 24 17 33 16 9 -1 10 0 4 2 -18 6 -17 11
13 50 16 21 32 32 41 29 8 -4 11 -1 7 5 -10 18 37 60 60 54 18 -5 19 -5 4 5
-15 9 -6 21 69 90 47 44 92 80 99 80 8 0 14 6 14 14 0 7 10 21 23 29 12 9 38
30 57 48 53 48 254 189 355 249 50 29 110 65 135 80 25 15 47 25 50 22 3 -2 0
-6 -5 -8z m205 -386 c0 -23 -3 -38 -6 -35 -10 10 -12 77 -2 77 4 0 8 -19 8
-42z m-430 -131 c0 -2 -30 -30 -66 -62 -61 -53 -67 -56 -82 -41 -11 11 -12 16
-4 16 7 0 10 5 6 11 -4 8 1 9 16 4 16 -5 20 -4 16 4 -5 7 7 17 29 27 20 8 33
19 30 24 -5 7 4 11 48 19 4 0 7 0 7 -2z m-147 -131 c7 3 1 -4 -13 -15 -28 -23
-46 -26 -55 -11 -4 6 6 10 22 11 15 0 22 3 14 6 -11 5 -11 7 0 14 8 5 15 4 17
-1 2 -6 9 -7 15 -4z m-79 -71 c-4 -8 -12 -15 -20 -15 -20 0 -17 18 4 23 9 3
18 5 19 6 1 0 0 -6 -3 -14z m-54 -66 c-12 -16 -25 -28 -28 -25 -3 3 2 14 11
24 10 10 14 22 10 25 -3 4 1 7 11 7 16 0 15 -3 -4 -31z m-50 -56 c-11 -17 -11
-17 -6 0 3 10 7 26 7 35 1 15 2 15 6 0 2 -10 -1 -25 -7 -35z m-1050 -197 c0
-2 -8 -10 -17 -17 -16 -13 -17 -12 -4 4 13 16 21 21 21 13z m-130 -161 c0 -5
-5 -3 -10 5 -8 12 -10 12 -10 1 0 -8 -2 -12 -5 -9 -3 3 -2 13 1 22 5 14 9 15
15 4 5 -7 9 -17 9 -23z m-189 -258 c-10 -9 -11 -8 -5 6 3 10 9 15 12 12 3 -3
0 -11 -7 -18z m39 -82 c0 -10 -45 -23 -55 -17 -5 3 1 9 15 13 33 9 40 10 40 4z
m234 -116 c10 16 26 14 26 -4 0 -19 19 -20 26 -2 6 15 64 11 64 -5 0 -6 -7 -7
-16 -4 -9 3 -12 2 -9 -4 4 -6 -21 -37 -55 -70 -50 -49 -60 -64 -55 -82 6 -23
6 -23 -11 -3 -10 12 -18 16 -21 9 -2 -6 -17 -26 -33 -44 -27 -31 -30 -32 -30
-12 0 12 5 22 10 22 6 0 10 5 10 11 0 6 -8 8 -19 4 -13 -4 -23 0 -29 12 -8 13
-5 22 14 40 13 12 24 26 24 30 0 5 9 16 20 26 12 10 18 23 14 29 -4 7 -3 8 4
4 7 -4 12 -2 12 3 0 19 34 51 41 40 5 -8 8 -8 13 0z m36 -189 c0 -11 -2 -20
-4 -20 -2 0 -6 9 -9 20 -3 11 -1 20 4 20 5 0 9 -9 9 -20z m39 -31 c-16 -10
-23 -4 -14 10 3 6 11 8 17 5 6 -4 5 -9 -3 -15z m62 -2 c-10 -9 -11 -8 -5 6 3
10 9 15 12 12 3 -3 0 -11 -7 -18z m-71 -61 c0 -3 -4 -8 -10 -11 -5 -3 -10 -1
-10 4 0 6 5 11 10 11 6 0 10 -2 10 -4z m-438 -25 c29 -11 74 -22 100 -26 39
-5 51 -12 67 -38 11 -18 23 -44 26 -59 4 -16 12 -28 17 -28 5 0 -11 -24 -36
-52 -25 -29 -46 -58 -46 -65 0 -7 -11 -15 -25 -19 -14 -3 -22 -10 -19 -15 3
-5 0 -9 -6 -9 -6 0 -10 -6 -8 -13 2 -7 -13 -29 -32 -49 -79 -81 -100 -107
-100 -122 0 -9 -4 -16 -9 -16 -5 0 -24 -16 -43 -35 -23 -24 -40 -34 -51 -29
-9 3 -17 10 -17 15 0 5 -7 9 -16 9 -9 0 -12 5 -8 12 5 8 2 9 -10 5 -9 -4 -15
-3 -11 2 5 9 -36 44 -106 91 -20 13 -35 31 -34 39 5 37 18 59 41 71 13 7 21
17 18 22 -3 5 11 25 31 46 20 20 41 49 47 65 5 15 16 27 24 27 18 0 55 41 48
52 -7 11 29 48 46 48 5 0 10 6 10 13 0 7 10 24 23 37 12 14 21 28 20 32 -4 11
0 10 59 -11z m-417 -491 c3 -5 1 -10 -4 -10 -6 0 -11 5 -11 10 0 6 2 10 4 10
3 0 8 -4 11 -10z m195 -350 c0 -5 -4 -10 -9 -10 -6 0 -13 5 -16 10 -3 6 1 10
9 10 9 0 16 -4 16 -10z m200 -70 c18 -12 2 -12 -25 0 -13 6 -15 9 -5 9 8 0 22
-4 30 -9z m3835 -280 c3 -6 -1 -7 -9 -4 -18 7 -21 14 -7 14 6 0 13 -4 16 -10z
m80 -30 c3 -5 1 -10 -4 -10 -6 0 -11 5 -11 10 0 6 2 10 4 10 3 0 8 -4 11 -10z
m75 -38 c3 -4 49 -29 103 -56 53 -27 97 -53 97 -57 0 -14 -10 -11 -59 19 -25
15 -72 41 -104 57 -31 17 -67 38 -79 48 l-23 17 30 -10 c16 -6 32 -14 35 -18z
m4620 -1852 c-10 -6 -11 -10 -2 -10 6 0 12 -5 12 -11 0 -8 -5 -8 -15 1 -16 13
-11 30 8 30 7 0 6 -4 -3 -10z m106 -335 c-8 -8 -25 -15 -38 -15 l-23 1 25 14
c35 20 56 20 36 0z"/>
<path d="M1737 6958 c-10 -11 -17 -22 -15 -24 3 -2 15 7 28 21 13 14 19 25 14
24 -5 0 -17 -10 -27 -21z"/>
<path d="M1788 6928 c5 -5 16 -8 23 -6 8 3 3 7 -10 11 -17 4 -21 3 -13 -5z"/>
<path d="M1868 6758 c9 -9 15 -9 24 0 9 9 7 12 -12 12 -19 0 -21 -3 -12 -12z"/>
<path d="M1910 6711 c0 -5 5 -13 10 -16 6 -3 10 -2 10 4 0 5 -4 13 -10 16 -5
3 -10 2 -10 -4z"/>
<path d="M1981 6677 c2 -1 13 -9 24 -17 19 -14 19 -14 6 3 -7 9 -18 17 -24 17
-6 0 -8 -1 -6 -3z"/>
<path d="M2110 6615 c0 -8 4 -15 10 -15 5 0 7 7 4 15 -4 8 -8 15 -10 15 -2 0
-4 -7 -4 -15z"/>
<path d="M2006 6575 c9 -14 21 -25 26 -25 5 0 2 7 -6 16 -9 8 -16 20 -16 25 0
5 -5 9 -10 9 -6 0 -3 -11 6 -25z"/>
<path d="M1930 6576 c0 -2 9 -6 20 -9 11 -3 20 -1 20 4 0 5 -9 9 -20 9 -11 0
-20 -2 -20 -4z"/>
<path d="M2270 6520 c0 -5 5 -10 11 -10 5 0 7 5 4 10 -3 6 -8 10 -11 10 -2 0
-4 -4 -4 -10z"/>
<path d="M1855 6480 c3 -5 11 -10 16 -10 6 0 7 5 4 10 -3 6 -11 10 -16 10 -6
0 -7 -4 -4 -10z"/>
<path d="M2108 6473 c7 -3 16 -2 19 1 4 3 -2 6 -13 5 -11 0 -14 -3 -6 -6z"/>
<path d="M1810 6433 c0 -5 12 -15 27 -22 20 -9 29 -9 37 0 8 9 8 10 -1 5 -7
-4 -24 1 -38 10 -14 9 -25 12 -25 7z"/>
<path d="M2166 6411 c-15 -6 -16 -9 -5 -13 8 -3 20 1 27 8 14 15 7 17 -22 5z"/>
<path d="M2324 6390 c-13 -13 -83 -16 -109 -5 -18 8 -18 7 -7 -8 8 -9 17 -16
20 -15 4 1 14 -1 22 -5 40 -15 89 -15 94 0 14 36 2 55 -20 33z m6 -20 c0 -5
-12 -10 -27 -9 l-28 1 25 8 c14 4 26 8 28 9 1 1 2 -3 2 -9z"/>
<path d="M2170 6374 c0 -8 32 -33 43 -34 4 0 7 5 7 10 0 6 -7 10 -15 10 -8 0
-15 5 -15 10 0 6 -4 10 -10 10 -5 0 -10 -3 -10 -6z"/>
<path d="M1764 6336 c11 -9 24 -16 30 -16 12 0 7 5 -24 19 -24 11 -24 11 -6
-3z"/>
<path d="M2238 6338 c6 -6 18 -8 28 -6 14 3 12 5 -9 10 -19 3 -25 2 -19 -4z"/>
<path d="M2184 6315 c-19 -14 -19 -14 2 -15 12 0 21 6 21 15 0 18 1 18 -23 0z"/>
<path d="M2286 6301 c-3 -5 -15 -7 -26 -4 -11 3 -20 0 -20 -6 0 -6 -3 -10 -7
-10 -22 4 -35 -3 -30 -15 3 -8 -1 -13 -10 -12 -9 0 -17 -6 -18 -16 -2 -12 4
-16 25 -14 39 3 62 24 54 50 -6 18 -5 19 9 8 13 -11 17 -10 27 7 10 20 7 30
-4 12z m-36 -38 c0 -2 -6 -11 -14 -18 -11 -12 -13 -10 -13 10 0 16 4 22 13 18
8 -3 14 -7 14 -10z"/>
<path d="M1675 6280 c-3 -6 1 -7 9 -4 18 7 21 14 7 14 -6 0 -13 -4 -16 -10z"/>
<path d="M2138 6233 c7 -3 16 -2 19 1 4 3 -2 6 -13 5 -11 0 -14 -3 -6 -6z"/>
<path d="M2190 6210 c0 -5 5 -10 11 -10 5 0 7 5 4 10 -3 6 -8 10 -11 10 -2 0
-4 -4 -4 -10z"/>
<path d="M2136 6173 c2 -17 -2 -23 -11 -19 -7 2 -20 -3 -29 -13 -19 -21 -21
-32 -3 -28 6 1 12 -5 12 -13 0 -8 -6 -14 -13 -12 -7 1 -17 -9 -22 -24 -6 -14
-15 -22 -20 -19 -6 4 -9 1 -8 -6 2 -7 -3 -14 -9 -15 -27 -3 -28 -5 -13 -14 13
-8 12 -10 -3 -10 -11 0 -15 -4 -11 -12 5 -8 31 14 76 61 37 41 65 78 62 83 -3
5 1 19 10 32 14 22 14 24 -3 29 -14 3 -17 -1 -15 -20z m-16 -45 c0 -16 -3 -19
-11 -11 -6 6 -8 16 -5 22 11 17 16 13 16 -11z"/>
<path d="M2075 6160 c-3 -5 -1 -10 4 -10 6 0 11 5 11 10 0 6 -2 10 -4 10 -3 0
-8 -4 -11 -10z"/>
<path d="M1948 6153 c7 -3 16 -2 19 1 4 3 -2 6 -13 5 -11 0 -14 -3 -6 -6z"/>
<path d="M1990 6151 c0 -6 4 -12 8 -15 5 -3 9 1 9 9 0 8 -4 15 -9 15 -4 0 -8
-4 -8 -9z"/>
<path d="M1825 6140 c11 -5 27 -9 35 -9 9 0 8 4 -5 9 -11 5 -27 9 -35 9 -9 0
-8 -4 5 -9z"/>
<path d="M2038 6133 c7 -3 16 -2 19 1 4 3 -2 6 -13 5 -11 0 -14 -3 -6 -6z"/>
<path d="M2015 6059 c-4 -6 -5 -12 -2 -15 2 -3 7 2 10 11 7 17 1 20 -8 4z"/>
<path d="M2380 7720 c-8 -5 -10 -10 -5 -10 6 0 17 5 25 10 8 5 11 10 5 10 -5
0 -17 -5 -25 -10z"/>
<path d="M2195 7620 c-3 -6 1 -7 9 -4 18 7 21 14 7 14 -6 0 -13 -4 -16 -10z"/>
<path d="M2180 7590 c8 -5 20 -10 25 -10 6 0 3 5 -5 10 -8 5 -19 10 -25 10 -5
0 -3 -5 5 -10z"/>
<path d="M2100 7566 c0 -3 14 -12 30 -21 17 -9 30 -13 30 -11 0 3 -13 12 -30
21 -16 9 -30 13 -30 11z"/>
<path d="M2060 7539 l-25 -20 25 12 c14 7 29 12 33 11 5 -1 6 2 2 8 -8 13 -5
13 -35 -11z"/>
<path d="M2006 7501 c-10 -11 -23 -18 -29 -14 -6 3 -7 1 -3 -6 4 -6 12 -9 17
-5 5 3 9 2 8 -3 -4 -21 3 -22 30 -8 37 18 52 40 23 31 -14 -5 -21 -2 -24 10
-3 14 -5 13 -22 -5z m24 -21 c0 -5 -4 -10 -9 -10 -6 0 -13 5 -16 10 -3 6 1 10
9 10 9 0 16 -4 16 -10z"/>
<path d="M1949 7473 c-1 -4 -1 -12 0 -16 1 -4 -4 -7 -11 -5 -22 4 -58 -21 -52
-37 4 -8 1 -15 -5 -15 -6 0 -11 5 -11 10 0 6 -20 -3 -45 -20 -25 -17 -45 -34
-45 -38 0 -14 49 -10 54 4 4 10 14 13 33 8 26 -6 27 -5 12 11 -16 16 -18 16
-43 0 -14 -10 -26 -15 -26 -12 0 2 11 12 25 21 23 15 28 15 58 1 25 -12 28
-13 14 -1 -11 8 -14 15 -7 18 6 2 13 12 15 23 2 11 4 22 4 24 1 2 10 -4 20
-13 11 -10 28 -16 38 -13 14 4 14 5 -4 6 -13 0 -23 6 -23 12 0 6 9 8 20 4 11
-4 20 -2 20 4 0 12 -39 35 -41 24z"/>
<path d="M1716 7315 c-13 -12 -31 -25 -41 -28 -9 -4 -13 -11 -10 -17 3 -5 1
-10 -4 -10 -6 0 -11 -7 -11 -16 0 -8 -5 -12 -10 -9 -6 4 -7 11 -4 17 4 7 2 8
-5 4 -9 -6 -9 -11 0 -22 14 -17 -2 -19 -19 -2 -9 9 -12 9 -12 0 0 -7 6 -12 13
-12 9 0 8 -3 -2 -9 -9 -6 -5 -8 15 -7 16 1 35 5 43 10 8 5 16 4 22 -5 8 -12
10 -12 18 1 13 19 4 32 -19 28 -26 -4 -27 15 -1 28 11 6 18 14 15 17 -4 3 7 5
22 3 16 -1 28 -7 27 -13 -1 -6 9 -8 24 -5 21 4 23 6 9 14 -9 5 -16 19 -16 32
0 29 -23 29 -54 1z m44 -19 c0 -5 -7 -3 -15 4 -8 7 -12 17 -9 22 7 10 24 -9
24 -26z m-95 -76 c-3 -5 -12 -10 -18 -10 -7 0 -6 4 3 10 19 12 23 12 15 0z"/>
<path d="M1785 7320 c-3 -5 1 -10 9 -10 9 0 16 5 16 10 0 6 -4 10 -9 10 -6 0
-13 -4 -16 -10z"/>
<path d="M1530 7169 c0 -5 5 -7 10 -4 6 3 10 8 10 11 0 2 -4 4 -10 4 -5 0 -10
-5 -10 -11z"/>
<path d="M1485 7144 c-18 -16 -22 -22 -9 -15 18 9 53 42 43 41 -2 -1 -17 -12
-34 -26z"/>
<path d="M1608 7163 c7 -3 16 -2 19 1 4 3 -2 6 -13 5 -11 0 -14 -3 -6 -6z"/>
<path d="M1568 7153 c7 -3 16 -2 19 1 4 3 -2 6 -13 5 -11 0 -14 -3 -6 -6z"/>
<path d="M1686 7103 c-6 -14 -5 -15 5 -6 7 7 10 15 7 18 -3 3 -9 -2 -12 -12z"/>
<path d="M1435 7100 c-3 -5 1 -10 9 -10 9 0 16 5 16 10 0 6 -4 10 -9 10 -6 0
-13 -4 -16 -10z"/>
<path d="M1394 7067 c-19 -22 -19 -22 2 -5 15 14 23 15 32 6 6 -6 14 -9 18 -6
3 4 -3 11 -14 17 -16 8 -23 6 -38 -12z"/>
<path d="M1347 7032 c-15 -17 -15 -18 10 -20 20 -2 23 1 14 11 -6 8 -8 17 -4
20 3 4 4 7 1 7 -3 0 -12 -8 -21 -18z"/>
<path d="M1500 7046 c0 -2 7 -7 16 -10 8 -3 12 -2 9 4 -6 10 -25 14 -25 6z"/>
<path d="M1232 6928 c-40 -39 -71 -73 -69 -75 2 -2 15 1 28 6 13 5 18 10 10
10 -32 2 9 21 51 24 9 1 14 5 11 10 -2 4 -14 5 -26 1 -20 -6 -20 -5 -8 10 8 9
20 15 28 12 8 -3 15 4 19 19 3 14 11 22 17 18 6 -3 7 -1 3 5 -4 7 -3 12 3 12
5 0 12 -4 16 -9 3 -6 14 -9 24 -8 27 2 18 31 -10 34 -18 1 -44 -17 -97 -69z
m108 48 c-7 -7 -13 -7 -20 0 -6 6 -3 10 10 10 13 0 16 -4 10 -10z"/>
<path d="M1236 6833 c-4 -9 -13 -13 -23 -9 -10 4 -14 4 -11 0 4 -4 -3 -15 -16
-25 -26 -21 -41 -25 -31 -9 3 6 -1 10 -9 10 -8 0 -18 -5 -22 -12 -4 -6 -3 -8
4 -4 20 12 23 -14 4 -34 -29 -31 -43 -87 -27 -104 10 -10 11 -16 2 -25 -8 -8
-8 -14 0 -22 6 -6 9 -18 6 -27 -4 -10 -1 -13 8 -10 8 3 32 -3 54 -13 83 -38
225 -10 292 56 40 40 61 111 40 133 -11 11 -22 12 -44 5 -23 -8 -28 -16 -28
-41 -1 -18 -6 -37 -12 -43 -9 -9 -11 -7 -7 8 5 19 -11 29 -151 84 l-30 12 30
6 c25 5 30 11 30 35 0 24 -5 31 -27 37 -19 5 -28 3 -32 -8z m34 -27 c0 -7 -13
-16 -30 -19 -49 -10 -39 -40 20 -61 30 -11 47 -22 43 -29 -4 -7 0 -8 11 -4 20
8 76 -18 76 -34 0 -6 -6 -9 -12 -6 -7 3 -55 22 -106 43 -92 38 -94 38 -108 19
-8 -11 -12 -25 -10 -31 4 -10 -13 -24 -29 -24 -5 0 8 44 14 50 3 3 11 14 17
25 12 22 90 85 105 85 5 0 9 -6 9 -14z m226 -91 c14 -36 -37 -109 -99 -142
-51 -28 -220 -22 -203 6 4 5 20 5 41 -2 59 -18 142 7 188 56 28 29 38 46 34
63 -6 31 28 48 39 19z m-260 -31 c22 -8 55 -22 74 -31 19 -9 47 -17 62 -17
l28 -1 -23 -17 c-34 -27 -124 -28 -161 -2 -11 8 -17 14 -12 14 5 0 4 6 -1 13
-14 17 -23 57 -13 57 4 0 25 -7 46 -16z m-69 -68 c-3 -8 -1 -17 6 -19 7 -2 10
-7 7 -10 -3 -3 -14 1 -25 9 -17 13 -18 16 -5 24 20 13 23 12 17 -4z"/>
<path d="M1250 6660 c8 -5 20 -10 25 -10 6 0 3 5 -5 10 -8 5 -19 10 -25 10 -5
0 -3 -5 5 -10z"/>
<path d="M1620 6651 c-15 -28 -12 -35 7 -20 11 10 17 10 20 3 2 -6 10 -20 18
-30 15 -18 16 -18 35 5 24 28 18 43 -7 18 -16 -16 -18 -15 -29 13 -15 35 -29
38 -44 11z"/>
<path d="M1570 6589 c-13 -24 -15 -22 25 -42 21 -11 36 -12 48 -6 26 15 21 37
-13 54 -38 20 -47 19 -60 -6z m65 -12 c13 -11 15 -16 6 -22 -15 -9 -63 14 -55
27 8 12 28 10 49 -5z"/>
<path d="M1042 6589 c2 -6 8 -10 13 -10 5 0 11 4 13 10 2 6 -4 11 -13 11 -9 0
-15 -5 -13 -11z"/>
<path d="M1080 6580 c0 -6 -10 -15 -22 -19 -21 -8 -20 -10 22 -29 24 -11 48
-18 52 -16 15 10 8 25 -17 34 -16 6 -23 14 -19 25 3 8 1 15 -5 15 -6 0 -11 -5
-11 -10z"/>
<path d="M964 6523 c20 -21 31 -40 24 -42 -6 -2 4 -10 21 -17 21 -9 30 -18 25
-25 -4 -8 -3 -9 4 -5 9 5 9 13 2 26 -9 18 -8 19 19 14 16 -3 37 -1 48 5 17 10
17 10 -4 11 -12 0 -25 5 -28 10 -4 6 -14 10 -23 9 -26 -4 -66 12 -80 32 -7 11
-20 19 -28 19 -10 0 -3 -13 20 -37z"/>
<path d="M925 6530 c3 -5 8 -10 11 -10 2 0 4 5 4 10 0 6 -5 10 -11 10 -5 0 -7
-4 -4 -10z"/>
<path d="M1506 6511 c-18 -19 -17 -21 15 -40 41 -25 43 -25 59 -6 16 19 6 45
-18 45 -10 0 -23 5 -28 10 -7 7 -16 4 -28 -9z m29 -11 c-3 -5 -11 -10 -16 -10
-6 0 -7 5 -4 10 3 6 11 10 16 10 6 0 7 -4 4 -10z m35 -20 c0 -5 -7 -10 -15
-10 -8 0 -15 5 -15 10 0 6 7 10 15 10 8 0 15 -4 15 -10z"/>
<path d="M1135 6480 c3 -5 10 -10 16 -10 5 0 9 5 9 10 0 6 -7 10 -16 10 -8 0
-12 -4 -9 -10z"/>
<path d="M1460 6454 c0 -9 6 -14 13 -11 6 2 25 -2 40 -10 16 -8 31 -12 34 -9
4 4 -69 46 -82 46 -3 0 -5 -7 -5 -16z"/>
<path d="M2467 6409 c7 -7 15 -10 18 -7 3 3 -2 9 -12 12 -14 6 -15 5 -6 -5z"/>
<path d="M2410 6349 c0 -5 5 -7 10 -4 6 3 10 8 10 11 0 2 -4 4 -10 4 -5 0 -10
-5 -10 -11z"/>
<path d="M2730 6250 c-8 -5 -10 -10 -5 -10 6 0 17 5 25 10 8 5 11 10 5 10 -5
0 -17 -5 -25 -10z"/>
<path d="M2299 6208 c14 -19 6 -42 -11 -32 -7 5 -8 2 -3 -5 6 -10 11 -9 23 3
15 15 15 17 -3 34 -17 15 -18 15 -6 0z"/>
<path d="M2860 6190 c0 -5 5 -10 10 -10 6 0 10 5 10 10 0 6 -4 10 -10 10 -5 0
-10 -4 -10 -10z"/>
<path d="M2932 6153 c2 -10 11 -19 21 -21 24 -5 21 15 -4 28 -18 10 -20 9 -17
-7z"/>
<path d="M2818 6143 c6 -2 18 -2 25 0 6 3 1 5 -13 5 -14 0 -19 -2 -12 -5z"/>
<path d="M2845 6130 c-13 -6 -15 -9 -5 -9 8 0 22 4 30 9 18 12 2 12 -25 0z"/>
<path d="M2790 6120 c-9 -6 -10 -10 -3 -10 6 0 15 5 18 10 8 12 4 12 -15 0z"/>
<path d="M2735 6100 c-3 -5 -2 -10 4 -10 5 0 13 5 16 10 3 6 2 10 -4 10 -5 0
-13 -4 -16 -10z"/>
<path d="M2766 6089 c-20 -11 -42 -16 -48 -13 -6 4 -8 3 -5 -3 6 -9 -60 -39
-76 -35 -14 4 -25 -43 -25 -120 -1 -44 3 -78 8 -78 10 0 14 20 10 53 -1 10 6
27 16 38 9 10 22 29 28 42 6 12 22 23 34 25 18 3 21 7 12 17 -8 10 -8 15 1 21
8 5 9 3 4 -6 -6 -9 -1 -10 16 -5 16 4 20 3 11 -3 -11 -7 -11 -10 3 -15 10 -4
14 -3 9 4 -4 6 1 9 13 7 11 -2 20 2 21 7 0 6 -6 9 -15 7 -12 -3 -13 -1 -2 10
9 11 22 11 56 4 39 -10 60 -26 31 -26 -6 0 -8 -3 -5 -6 4 -4 13 -1 21 5 18 15
71 -7 107 -45 28 -30 50 -32 23 -3 -19 22 -19 22 1 10 11 -6 38 -18 60 -26 33
-13 34 -14 10 -11 l-30 5 30 -14 c17 -8 39 -14 50 -15 17 0 17 -2 5 -10 -12
-8 -11 -10 6 -10 12 0 28 -7 35 -16 9 -11 23 -14 46 -11 19 3 31 2 28 -3 -3
-4 -28 -11 -55 -15 -27 -4 -53 -11 -56 -16 -3 -5 -10 -6 -16 -3 -6 4 -9 3 -6
-2 3 -5 -3 -17 -13 -26 -17 -16 -18 -16 -22 0 -2 9 -3 -10 -2 -43 1 -33 -2
-68 -7 -77 -5 -12 -5 -18 2 -18 5 0 10 6 10 13 0 6 6 1 13 -13 7 -14 19 -25
27 -25 8 0 20 -4 27 -8 7 -4 28 -8 47 -9 26 -1 33 -5 29 -17 -3 -12 0 -11 11
3 9 11 16 23 16 28 0 4 7 8 15 8 8 0 15 8 15 18 0 10 5 23 12 30 9 9 9 12 0
12 -6 0 -14 -11 -18 -25 -8 -33 -26 -32 -42 2 -10 22 -10 30 2 41 11 11 15 11
21 1 5 -7 4 -10 -1 -6 -6 3 -10 -3 -11 -13 -1 -11 3 -23 9 -26 6 -4 8 -3 5 2
-3 6 -2 16 3 24 5 8 5 21 0 31 -7 12 -5 21 8 30 16 13 16 12 2 -5 -14 -17 -13
-18 7 -12 12 4 24 2 28 -4 3 -5 13 -10 21 -10 8 0 13 4 9 9 -3 6 4 8 16 6 17
-4 19 -2 9 10 -7 8 -9 15 -5 15 5 0 -8 16 -28 35 -42 40 -36 47 7 10 17 -14
35 -24 41 -21 6 2 17 -5 24 -16 10 -16 19 -19 42 -14 19 4 28 2 26 -6 -1 -7 7
-14 18 -16 11 -2 26 -9 34 -16 8 -6 24 -10 35 -8 17 2 18 1 6 -7 -11 -8 -11
-11 -2 -11 7 0 11 -4 8 -8 -2 -4 4 -8 14 -8 15 0 17 3 7 15 -7 8 3 5 21 -8 17
-12 32 -26 32 -31 0 -4 6 -8 13 -7 32 1 60 -4 54 -9 -10 -10 22 -36 38 -30 8
3 17 1 20 -4 4 -6 15 -10 26 -10 13 0 18 -4 13 -12 -4 -7 -3 -8 4 -4 18 11 37
-4 21 -16 -11 -8 -10 -9 3 -5 9 3 24 -1 35 -8 10 -8 27 -15 37 -15 17 0 17 -2
-5 -22 -17 -14 -19 -19 -6 -15 9 4 17 2 17 -3 0 -6 5 -10 11 -10 8 0 8 4 0 14
-9 10 -8 15 4 20 21 7 45 -3 45 -20 0 -8 7 -14 16 -14 9 0 12 5 8 13 -6 10 -4
10 7 0 7 -7 21 -13 31 -13 10 0 18 -4 18 -9 0 -5 14 -11 31 -15 17 -3 28 -10
24 -16 -3 -5 1 -10 9 -10 9 0 16 -4 16 -9 0 -5 12 -8 26 -5 15 3 23 1 20 -5
-3 -5 0 -12 6 -14 10 -4 9 -8 -2 -16 -13 -9 -13 -11 3 -11 9 0 17 -4 17 -9 0
-14 29 -21 36 -9 4 6 3 8 -4 4 -6 -3 -13 -2 -17 4 -4 6 10 9 34 7 23 -1 41 -5
41 -9 0 -5 7 -8 15 -8 8 0 15 -4 15 -9 0 -12 60 -32 73 -24 6 4 7 1 2 -7 -4
-7 -2 -16 6 -21 22 -14 33 -11 19 5 -10 13 -8 13 13 3 14 -6 23 -15 21 -19 -3
-5 4 -8 15 -8 12 0 21 -4 21 -10 0 -5 12 -13 28 -16 15 -4 33 -11 39 -16 7 -6
20 -7 29 -4 12 4 15 2 10 -9 -3 -8 -1 -15 5 -15 6 0 7 -4 4 -10 -3 -5 -1 -10
4 -10 6 0 11 -19 12 -42 1 -39 2 -40 9 -15 5 15 10 46 12 70 l3 42 -63 31
c-34 17 -59 34 -55 38 4 4 0 4 -9 1 -9 -4 -30 0 -45 9 -15 8 -57 28 -93 44
-76 34 -241 107 -288 128 -20 9 -30 19 -26 26 4 6 3 8 -4 4 -10 -6 -116 40
-312 136 -47 23 -89 41 -95 40 -5 -1 -2 4 8 12 17 13 16 14 -7 12 -13 0 -22
-4 -20 -8 3 -4 -2 -5 -10 -2 -9 3 -13 11 -10 16 4 6 1 8 -7 6 -8 -3 -30 2 -49
12 -85 42 -228 108 -257 120 -18 7 -30 16 -28 20 3 5 0 12 -6 16 -8 4 -9 3 -5
-4 11 -18 3 -15 -69 21 -36 18 -62 37 -58 41 4 4 0 4 -10 0 -9 -3 -17 -1 -17
5 0 6 -6 8 -13 5 -7 -2 -23 5 -36 17 -12 11 -25 19 -28 16 -3 -3 -30 7 -62 23
-31 16 -69 33 -84 39 -16 6 -26 14 -24 18 11 17 -72 11 -107 -8z m524 -229 c0
-5 -5 -10 -11 -10 -5 0 -7 5 -4 10 3 6 8 10 11 10 2 0 4 -4 4 -10z m-86 -101
c-18 -20 -49 -25 -59 -10 -3 5 0 13 6 17 8 4 9 3 5 -4 -14 -24 10 -11 47 25
20 18 21 -6 1 -28z m-36 -43 c-7 -8 -15 -12 -17 -11 -5 6 10 25 20 25 5 0 4
-6 -3 -14z"/>
<path d="M2985 6100 c4 -6 11 -8 16 -5 14 9 11 15 -7 15 -8 0 -12 -5 -9 -10z"/>
<path d="M3047 6099 c7 -7 15 -10 18 -7 3 3 -2 9 -12 12 -14 6 -15 5 -6 -5z"/>
<path d="M3020 6090 c0 -5 5 -10 11 -10 5 0 7 5 4 10 -3 6 -8 10 -11 10 -2 0
-4 -4 -4 -10z"/>
<path d="M3105 6070 c-4 -6 -15 -8 -25 -5 -29 9 -33 -13 -5 -31 20 -13 28 -14
40 -4 12 10 20 9 41 -5 15 -9 41 -19 58 -21 25 -3 21 0 -19 16 -27 12 -58 30
-67 41 -10 12 -19 15 -23 9z"/>
<path d="M2645 6059 c-11 -17 -2 -18 25 -4 24 14 24 14 3 15 -12 0 -25 -5 -28
-11z"/>
<path d="M2600 6049 c0 -5 5 -7 10 -4 6 3 10 8 10 11 0 2 -4 4 -10 4 -5 0 -10
-5 -10 -11z"/>
<path d="M3010 6036 c0 -2 7 -7 16 -10 8 -3 12 -2 9 4 -6 10 -25 14 -25 6z"/>
<path d="M2591 6004 c0 -11 3 -14 6 -6 3 7 2 16 -1 19 -3 4 -6 -2 -5 -13z"/>
<path d="M3136 6006 c10 -8 21 -12 24 -10 5 6 -21 24 -34 24 -6 0 -1 -6 10
-14z"/>
<path d="M3253 5988 c-7 -9 -5 -18 7 -28 14 -14 18 -14 35 3 20 19 20 19 0 17
-33 -4 -41 0 -25 10 8 5 10 10 4 10 -6 0 -16 -6 -21 -12z"/>
<path d="M2591 5944 c0 -11 3 -14 6 -6 3 7 2 16 -1 19 -3 4 -6 -2 -5 -13z"/>
<path d="M3220 5950 c20 -13 33 -13 25 0 -3 6 -14 10 -23 10 -15 0 -15 -2 -2
-10z"/>
<path d="M3300 5950 c0 -5 4 -10 9 -10 6 0 13 5 16 10 3 6 -1 10 -9 10 -9 0
-16 -4 -16 -10z"/>
<path d="M3357 5921 c9 -12 23 -21 30 -21 15 0 55 -21 64 -33 3 -4 13 -5 23
-1 14 5 8 11 -24 25 -23 11 -48 19 -56 19 -8 0 -13 6 -11 12 1 7 -8 14 -21 16
-22 3 -23 3 -5 -17z"/>
<path d="M3315 5920 c27 -12 43 -12 25 0 -8 5 -22 9 -30 9 -10 0 -8 -3 5 -9z"/>
<path d="M3300 5896 c0 -2 9 -6 20 -9 11 -3 18 -1 14 4 -5 9 -34 13 -34 5z"/>
<path d="M3500 5856 c0 -2 7 -7 16 -10 8 -3 12 -2 9 4 -6 10 -25 14 -25 6z"/>
<path d="M3495 5830 c19 -8 83 -14 74 -6 -2 2 -24 6 -49 9 -30 4 -38 3 -25 -3z"/>
<path d="M3061 5754 c0 -11 3 -14 6 -6 3 7 2 16 -1 19 -3 4 -6 -2 -5 -13z"/>
<path d="M3676 5761 c-4 -5 7 -12 24 -16 16 -4 30 -11 30 -16 0 -5 6 -9 14 -9
8 0 17 -6 19 -12 3 -8 6 -7 6 4 1 10 -12 21 -34 29 -19 7 -35 17 -35 21 0 11
-18 10 -24 -1z"/>
<path d="M3300 5741 c0 -6 4 -13 10 -16 6 -3 7 1 4 9 -7 18 -14 21 -14 7z"/>
<path d="M3354 5736 c-5 -6 -21 -26 -34 -44 -20 -27 -22 -36 -13 -51 9 -14 9
-22 0 -31 -10 -10 -8 -10 10 -1 27 14 36 14 28 1 -3 -5 0 -7 8 -5 7 3 19 -5
26 -19 8 -13 23 -27 34 -30 16 -4 18 -8 9 -19 -7 -8 -9 -17 -6 -20 4 -3 -5 -9
-20 -13 -29 -7 -27 -19 4 -27 12 -3 18 -1 14 5 -4 6 -1 8 7 6 8 -3 13 -11 12
-17 -2 -6 2 -11 8 -11 5 0 7 -5 3 -12 -4 -7 -3 -8 5 -4 6 4 22 1 35 -7 12 -8
42 -22 67 -30 24 -9 43 -21 41 -28 -2 -7 3 -9 12 -6 9 4 18 2 22 -4 3 -6 12
-8 20 -5 8 3 14 1 14 -5 0 -5 17 -17 38 -25 77 -32 92 -39 92 -46 0 -3 11 -5
25 -3 23 2 30 -6 26 -28 -1 -5 3 -6 8 -3 5 3 23 -1 40 -10 31 -15 33 -15 56 6
27 26 23 50 -4 26 -10 -9 -21 -16 -26 -16 -5 0 0 6 11 14 14 11 16 17 7 27 -9
9 -14 6 -25 -10 -7 -11 -17 -21 -22 -21 -6 0 -5 5 2 12 7 7 12 21 12 33 0 18
-2 17 -18 -8 -10 -15 -22 -24 -25 -20 -11 10 -8 25 3 18 6 -3 10 0 10 8 0 11
-7 13 -22 9 -14 -3 -19 -2 -14 7 9 14 -2 51 -16 51 -6 0 -6 -6 2 -15 8 -9 9
-15 2 -15 -6 0 -14 5 -17 10 -4 6 -11 7 -17 4 -6 -4 -8 -2 -4 4 3 5 1 12 -6
14 -7 3 -5 7 6 11 10 4 15 3 11 -3 -3 -6 -2 -10 4 -10 5 0 13 5 17 11 5 8 10
6 16 -5 5 -9 13 -14 19 -11 5 4 9 -1 9 -9 0 -9 6 -13 14 -10 8 3 32 -4 54 -15
27 -14 42 -17 50 -9 7 7 13 4 21 -10 6 -10 7 -22 3 -26 -3 -4 2 -4 12 0 13 5
17 4 13 -3 -5 -8 1 -8 22 0 16 6 32 18 34 27 2 9 11 17 20 17 13 0 11 -6 -8
-25 -27 -27 -25 -39 8 -51 17 -7 28 -1 53 26 17 19 37 33 45 31 7 -2 15 7 17
18 2 16 -7 26 -37 42 -23 12 -47 19 -55 16 -7 -3 -16 2 -19 10 -4 9 -14 16
-24 16 -16 0 -16 2 -3 11 13 9 13 10 0 6 -8 -2 -16 -9 -16 -15 -1 -7 -2 -16
-3 -22 0 -5 -5 -10 -10 -10 -4 0 -7 11 -6 25 4 32 -30 45 -51 18 -14 -17 -15
-17 -9 4 5 18 -1 26 -34 43 -46 23 -65 26 -56 8 4 -7 -3 -1 -15 15 -12 15 -28
27 -35 27 -7 0 -15 6 -17 12 -3 9 -11 8 -30 -4 -24 -16 -25 -16 -25 13 0 20 5
29 16 29 14 0 14 2 1 10 -10 6 -17 5 -23 -5 -6 -12 -12 -12 -40 0 -28 12 -34
11 -51 -3 -18 -16 -18 -16 -7 5 10 21 8 24 -26 38 -21 9 -44 23 -52 33 -12 15
-13 15 -8 0 3 -9 -1 -22 -9 -29 -12 -10 -13 -9 -9 4 4 8 1 18 -4 22 -6 3 -8
11 -5 17 4 6 3 8 -2 5 -6 -3 -24 1 -42 10 -26 13 -35 13 -47 3 -13 -11 -14
-10 -10 2 11 28 -79 67 -101 44z m31 -65 c-3 -6 -11 -11 -16 -11 -5 0 -4 6 3
14 14 16 24 13 13 -3z m53 -21 c-7 -10 -14 -17 -17 -15 -4 4 18 35 25 35 2 0
-1 -9 -8 -20z m112 -50 c0 -5 -5 -10 -11 -10 -5 0 -7 5 -4 10 3 6 8 10 11 10
2 0 4 -4 4 -10z m-77 -65 c-13 -9 -22 -5 -49 23 -19 19 -34 36 -34 37 0 2 22
-9 50 -23 42 -21 47 -27 33 -37z m47 -10 c0 -8 6 -12 14 -9 8 3 25 0 38 -7 13
-7 29 -14 36 -15 8 -1 19 -9 25 -17 16 -20 71 -29 88 -14 7 7 5 1 -6 -12 -11
-14 -15 -21 -8 -17 7 4 27 -1 45 -10 18 -10 27 -19 21 -21 -7 -3 -13 -14 -14
-26 0 -15 -2 -17 -6 -7 -4 8 -13 20 -22 27 -11 9 -12 12 -3 13 7 0 11 4 8 9
-12 18 -46 -1 -46 -25 0 -13 -4 -24 -9 -24 -5 0 -7 9 -4 20 3 12 0 20 -6 20
-7 0 -9 -4 -6 -10 3 -5 1 -10 -4 -10 -14 0 -14 16 0 43 11 21 10 21 -15 -2
-14 -14 -26 -19 -26 -13 0 6 -8 9 -17 6 -13 -4 -14 -3 -5 3 13 10 13 65 0 57
-4 -3 -5 -10 -2 -17 2 -7 -4 -22 -16 -32 -11 -10 -20 -13 -20 -7 0 6 6 15 14
19 9 5 11 15 5 28 -7 19 -8 19 -8 1 -1 -19 -1 -19 -15 -1 -12 17 -15 17 -29 3
-9 -9 -13 -19 -9 -23 4 -5 1 -5 -6 -1 -11 6 -10 12 4 27 9 10 15 19 13 20 -2
0 -14 2 -26 5 -13 2 -23 0 -23 -5 0 -5 -8 -12 -17 -15 -15 -6 -15 -4 2 14 10
11 14 20 9 21 -9 0 25 17 39 18 4 1 7 -6 7 -14z m290 -50 c0 -8 -4 -15 -10
-15 -5 0 -7 7 -4 15 4 8 8 15 10 15 2 0 4 -7 4 -15z m31 -12 c13 -16 12 -17
-3 -4 -10 7 -18 15 -18 17 0 8 8 3 21 -13z m32 2 c-3 -9 -8 -14 -10 -11 -3 3
-2 9 2 15 9 16 15 13 8 -4z m101 -51 c5 -14 4 -15 -9 -4 -17 14 -19 20 -6 20
5 0 12 -7 15 -16z m-261 -45 c-9 -9 -12 -7 -10 9 1 14 5 18 11 12 7 -7 6 -14
-1 -21z m245 19 c-2 -5 -8 -9 -13 -9 -5 0 -11 4 -13 9 -1 5 4 9 13 9 9 0 14
-4 13 -9z m-150 -62 c-7 -8 -15 -12 -17 -11 -5 6 10 25 20 25 5 0 4 -6 -3 -14z"/>
<path d="M3060 5710 c0 -5 5 -10 10 -10 6 0 10 5 10 10 0 6 -4 10 -10 10 -5 0
-10 -4 -10 -10z"/>
<path d="M3500 5716 c0 -2 8 -10 18 -17 15 -13 16 -12 3 4 -13 16 -21 21 -21
13z"/>
<path d="M3740 5691 c8 -5 31 -11 50 -15 24 -4 28 -3 15 2 -31 14 -83 24 -65
13z"/>
<path d="M3855 5660 c-8 -13 5 -13 25 0 13 8 13 10 -2 10 -9 0 -20 -4 -23 -10z"/>
<path d="M3266 5624 c-4 -9 -4 -19 -1 -22 3 -3 5 0 5 6 0 7 3 11 8 11 19 -3
33 2 27 11 -10 16 -32 12 -39 -6z"/>
<path d="M3148 5618 c6 -6 18 -8 28 -6 14 3 12 5 -9 10 -19 3 -25 2 -19 -4z"/>
<path d="M3910 5619 c0 -5 5 -7 10 -4 6 3 10 8 10 11 0 2 -4 4 -10 4 -5 0 -10
-5 -10 -11z"/>
<path d="M3980 5580 c8 -5 20 -10 25 -10 6 0 3 5 -5 10 -8 5 -19 10 -25 10 -5
0 -3 -5 5 -10z"/>
<path d="M4030 5569 c-12 -8 -10 -9 8 -4 13 4 30 1 40 -7 15 -12 16 -11 3 5
-15 19 -29 21 -51 6z"/>
<path d="M4158 5493 c7 -3 16 -2 19 1 4 3 -2 6 -13 5 -11 0 -14 -3 -6 -6z"/>
<path d="M4200 5486 c0 -3 9 -10 20 -16 11 -6 20 -8 20 -6 0 3 -9 10 -20 16
-11 6 -20 8 -20 6z"/>
<path d="M4317 5449 c7 -7 15 -10 18 -7 3 3 -2 9 -12 12 -14 6 -15 5 -6 -5z"/>
<path d="M4380 5410 c-9 -6 -10 -10 -3 -10 6 0 15 5 18 10 8 12 4 12 -15 0z"/>
<path d="M3728 5303 c7 -3 16 -2 19 1 4 3 -2 6 -13 5 -11 0 -14 -3 -6 -6z"/>
<path d="M9596 3135 c6 -31 11 -41 18 -34 2 2 -2 18 -10 34 l-14 30 6 -30z"/>
<path d="M9590 3081 c0 -5 5 -13 10 -16 6 -3 10 -2 10 4 0 5 -4 13 -10 16 -5
3 -10 2 -10 -4z"/>
<path d="M9546 3051 c-3 -5 1 -11 9 -14 9 -4 12 -1 8 9 -6 16 -10 17 -17 5z"/>
<path d="M9290 2741 c0 -6 4 -13 10 -16 6 -3 7 1 4 9 -7 18 -14 21 -14 7z"/>
</g>
</svg>
